<svg width="54" height="54" viewBox="0 0 54 54" fill="none" xmlns="http://www.w3.org/2000/svg">
<path d="M26.85 25.95C30.9 25.95 34.05 22.65 34.05 18.6C34.05 14.55 30.75 11.4 26.7 11.4C22.65 11.4 19.5 14.7 19.5 18.6C19.5 22.65 22.8 25.95 26.85 25.95ZM26.7 14.4C26.85 14.4 26.85 14.4 26.7 14.4C29.1 14.4 31.05 16.35 31.05 18.75C31.05 21.15 29.1 22.95 26.7 22.95C24.3 22.95 22.5 21 22.5 18.75C22.5 16.35 24.45 14.4 26.7 14.4Z" fill="#02AC32"/>
<path d="M49.05 25.05C46.2 22.5 42.45 21.15 38.55 21.3H37.35C37.05 22.5 36.6 23.55 36 24.45C36.9 24.3 37.65 24.3 38.55 24.3C41.4 24.15 44.25 25.05 46.5 26.7V37.5H49.5V25.5L49.05 25.05Z" fill="#02AC32"/>
<path d="M35.1 11.7001C35.85 9.90007 37.95 9.00007 39.9 9.75007C41.7 10.5001 42.6 12.6001 41.85 14.5501C41.25 15.9001 39.9 16.8001 38.55 16.8001C38.25 16.8001 37.8 16.8001 37.5 16.6501C37.65 17.4001 37.65 18.1501 37.65 18.7501V19.6501C37.95 19.6501 38.25 19.8001 38.55 19.8001C42.3 19.8001 45.3 16.8001 45.3 13.2001C45.3 9.45007 42.3 6.45007 38.7 6.45007C36.3 6.45007 34.2 7.65007 33 9.75007C33.75 10.2001 34.5 10.8001 35.1 11.7001Z" fill="#02AC32"/>
<path d="M18 24.6C17.4 23.7 16.95 22.65 16.65 21.45H15.45C11.55 21.3 7.8 22.65 4.95 25.05L4.5 25.5V37.5H7.5V26.7C9.9 25.05 12.6 24.15 15.45 24.3C16.35 24.3 17.25 24.45 18 24.6Z" fill="#02AC32"/>
<path d="M15.45 19.65C15.75 19.65 16.05 19.65 16.35 19.5V18.6C16.35 17.85 16.35 17.1 16.5 16.5C16.2 16.65 15.75 16.65 15.45 16.65C13.5 16.65 11.85 15 11.85 13.05C11.85 11.1 13.5 9.45 15.45 9.45C16.95 9.45 18.3 10.35 18.9 11.7C19.5 10.95 20.4 10.2 21.15 9.6C19.2 6.45 15.15 5.4 12 7.35C8.85002 9.3 7.80002 13.35 9.75002 16.5C10.95 18.45 13.05 19.65 15.45 19.65Z" fill="#02AC32"/>
<path d="M39.15 34.05L38.85 33.6C35.85 30.3 31.65 28.35 27.15 28.5C22.65 28.35 18.3 30.3 15.3 33.6L15 34.05V45.45C15 46.8 16.05 48 17.55 48H36.75C38.1 48 39.3 46.8 39.3 45.45V34.05H39.15ZM36.15 45H18V35.1C20.4 32.7 23.7 31.5 27.15 31.5C30.45 31.35 33.75 32.7 36.15 35.1V45Z" fill="#02AC32"/>
</svg>
