<svg width="38" height="48" viewBox="0 0 38 48" fill="none" xmlns="http://www.w3.org/2000/svg">
<path d="M33.5 0.4375H4.5C3.53859 0.4375 2.61656 0.819418 1.93674 1.49924C1.25692 2.17906 0.875 3.10109 0.875 4.0625V43.9375C0.875 44.8989 1.25692 45.8209 1.93674 46.5008C2.61656 47.1806 3.53859 47.5625 4.5 47.5625H33.5C34.4614 47.5625 35.3834 47.1806 36.0633 46.5008C36.7431 45.8209 37.125 44.8989 37.125 43.9375V4.0625C37.125 3.10109 36.7431 2.17906 36.0633 1.49924C35.3834 0.819418 34.4614 0.4375 33.5 0.4375ZM33.5 4.0625V14.9375H4.5V4.0625H33.5ZM4.5 29.4375V18.5625H33.5V29.4375H4.5ZM4.5 43.9375V33.0625H33.5V43.9375H4.5Z" fill="#4495C2"/>
</svg>
